<?xml version="1.0" encoding="UTF-8" standalone="no"?>
<!-- Created with Inkscape (http://www.inkscape.org/) -->

<svg
   width="128"
   height="128"
   version="1.1"
   viewBox="0 0 33.87 33.87"
   id="svg1928"
   sodipodi:docname="drawing.svg"
   inkscape:version="1.2 (dc2aedaf03, 2022-05-15)"
   inkscape:export-filename="drawing.png"
   inkscape:export-xdpi="96"
   inkscape:export-ydpi="96"
   xmlns:inkscape="http://www.inkscape.org/namespaces/inkscape"
   xmlns:sodipodi="http://sodipodi.sourceforge.net/DTD/sodipodi-0.dtd"
   xmlns="http://www.w3.org/2000/svg"
   xmlns:svg="http://www.w3.org/2000/svg">
  <defs
     id="defs1932" />
  <sodipodi:namedview
     id="namedview1930"
     pagecolor="#ffffff"
     bordercolor="#000000"
     borderopacity="0.25"
     inkscape:showpageshadow="2"
     inkscape:pageopacity="0"
     inkscape:pagecheckerboard="true"
     inkscape:deskcolor="#e3bfbf"
     showgrid="false"
     inkscape:zoom="5.6568543"
     inkscape:cx="34.294679"
     inkscape:cy="68.677746"
     inkscape:window-width="1920"
     inkscape:window-height="1009"
     inkscape:window-x="0"
     inkscape:window-y="0"
     inkscape:window-maximized="1"
     inkscape:current-layer="svg1928"
     showguides="true">
    <sodipodi:guide
       position="18.966742,16.935"
       orientation="0,1"
       id="guide2342"
       inkscape:locked="false"
       inkscape:label=""
       inkscape:color="rgb(0,134,229)" />
    <sodipodi:guide
       position="16.935,33.87"
       orientation="-1,0"
       id="guide2344"
       inkscape:locked="false"
       inkscape:label=""
       inkscape:color="rgb(0,134,229)" />
  </sodipodi:namedview>
  <path
     id="path1920"
     style="fill:#000000;stroke:none;stroke-width:0.958271;stroke-linecap:round"
     d="m 22.813773,18.29319 c -0.205592,0.0069 -0.346235,0.07439 -0.38141,0.09199 -0.214639,0.10732 -2.65e-4,0.107911 -0.215512,0.161764 -0.06968,0.01742 -0.148755,-0.02668 -0.215512,0 -0.303609,0.121443 -0.374864,0.206031 -0.643224,0.384938 -0.04657,0.03105 -0.11671,0.01773 -0.159179,0.05427 -0.01195,0.01026 0.04559,0.140987 0.09458,0.189154 0.186029,0.18289 0.238095,0.394473 0.428229,0.584607 0.04578,0.04578 0.05364,0.125271 0.107498,0.161246 0.02988,0.01992 0.08262,-0.02539 0.108014,0 0.04015,0.04015 0.02558,0.112425 0.05375,0.161763 0.04454,0.07795 0.106606,0.144649 0.161763,0.215512 0.05675,0.07296 0.334578,0.359417 0.374174,0.482189 0.02757,0.08544 -0.01476,0.180774 0,0.269261 0.03841,0.230452 0.05833,0.198398 0,0.431023 -0.02913,0.116145 -0.09344,0.317137 -0.160212,0.42844 -0.02612,0.04356 -0.07703,0.06688 -0.107498,0.107498 -0.0706,0.09414 -0.05319,0.160613 -0.107498,0.26926 -0.01135,0.02272 -0.0481,0.02912 -0.05426,0.05375 -0.02612,0.104519 0.02113,0.217897 0,0.323527 -0.03829,0.19146 -0.132515,0.391393 -0.161246,0.59227 -0.67021,2.840036 0.639199,4.645872 0.633615,7.122747 -0.384447,0.762425 0.102826,1.557399 0.958692,2.156153 h 5.17e-4 c 2.070228,0.714796 4.835146,0.492081 5.845697,-1.195911 0.373834,-4.059735 -0.670563,-3.490579 -1.61143,-6.170773 -0.111774,-0.335359 -0.146581,-0.679398 -0.215512,-1.023811 0.01043,-0.819309 -0.77593,-2.805877 -1.224928,-2.952782 -1.443552,-0.607875 -1.839264,-0.315735 -2.395879,-2.106839 -0.06448,-0.02149 -0.07345,-0.168001 -0.103363,-0.214478 -0.0903,-0.140155 -0.268991,-0.214845 -0.377275,-0.323009 -0.02839,-0.02839 -0.01852,-0.08825 -0.05375,-0.107498 C 23.173,18.319464 22.973678,18.287817 22.813773,18.29319 Z m 4.388277,6.166122 c 0.181054,1.341032 0.921111,2.198887 1.107019,2.850236 -0.07993,0.09991 -0.205657,0.152264 -0.312157,0.223264 -1.710693,0.449347 -4.007284,1.023391 -5.180555,0.174684 -0.252478,-0.850474 -0.162503,-1.609061 -0.31319,-2.66625 0.347517,0.15702 1.061512,0.262052 1.281185,0.293034 1.310511,-0.156296 2.111627,-0.472735 2.624387,-1.301857 0.342876,-0.521278 0.428738,0.05964 0.793311,0.426889 z"
     sodipodi:nodetypes="scccsccscsccccccccccccccccccccccscccccccc" />
  <path
     id="path1894"
     style="fill:#000000;stroke:none;stroke-width:0.7938;stroke-linecap:round"
     d="M 10.659313 2.2512469 C 10.605954 2.2510545 10.559767 2.2544645 10.523908 2.2615833 C 10.459008 2.2744529 10.410943 2.336999 10.346123 2.3499586 C 10.160203 2.3871386 10.272076 2.325169 10.123376 2.3499586 C 9.9791764 2.3739586 9.7858808 2.4203771 9.6778812 2.5287767 C 9.6544012 2.5523267 9.6569547 2.5941489 9.6334351 2.6176689 C 9.6099251 2.6411889 9.567546 2.6391122 9.544026 2.6626318 C 9.4334064 2.7732614 9.5467099 2.7231335 9.4995799 2.8409331 C 9.4796699 2.8907627 9.4300909 2.9249986 9.4101709 2.9747882 C 9.3770309 3.0575878 9.4346909 3.1566889 9.4101709 3.2424985 C 9.3954409 3.2940981 9.3342887 3.324324 9.3212787 3.3763536 C 9.3032387 3.4484532 9.3304987 3.5258178 9.3212787 3.5996178 C 9.2823484 3.9110083 9.1637108 4.2205401 9.0220427 4.580533 C 9.0164543 4.5805774 9.0111401 4.5804456 9.0055046 4.580533 C 8.5903604 4.5869715 8.0434741 4.7157825 7.7444756 4.8652982 C 7.5642761 4.9553777 7.6411643 4.9569928 7.4767653 5.0885623 C 7.4248253 5.1301123 7.3499472 5.1364218 7.2979472 5.1779713 C 7.2462577 5.2193213 7.0199904 5.4697277 6.9857909 5.4901277 C 6.9039309 5.5390077 6.7968624 5.5321736 6.7144629 5.5800536 C 6.6084753 5.6415777 6.3591662 5.8388406 6.11289 6.0565572 C 5.9085809 5.9302327 5.644713 5.7919412 5.6384537 5.7883301 C 5.3424552 5.6192306 5.0731585 5.3965456 4.79036 5.2079466 C 4.73501 5.1710471 4.6698587 5.1520544 4.6120587 5.1190544 C 4.3193602 4.9517554 3.9930756 4.7165985 3.6321771 4.806898 C 3.5447176 4.828768 3.4167664 4.9565993 3.3644669 4.9851993 C 3.2650274 5.0394388 3.1488932 5.0607349 3.0517937 5.1190544 C 2.9976837 5.1515244 2.9664485 5.21248 2.9179385 5.2529095 C 2.7659395 5.379609 2.7664812 5.3154247 2.6057822 5.4761737 C 2.5678622 5.5140937 2.5542931 5.5720693 2.5163731 5.6100288 C 2.2844746 5.8419278 2.4702448 5.5675411 2.2936258 5.7883301 C 2.2601258 5.8302096 2.2421363 5.8842252 2.2042168 5.9221852 C 2.1662968 5.9601452 2.1083216 5.9736747 2.0703616 6.0115942 C 1.9545621 6.1273937 1.8635048 6.2867606 1.7582053 6.4131596 C 1.6908753 6.4939596 1.5890406 6.5462243 1.5349411 6.6364238 C 1.4866311 6.7169333 1.4572521 6.8104177 1.4455321 6.9036172 C 1.4090521 7.1936162 1.5110011 7.5067913 1.5349411 7.7940898 C 1.5451911 7.9170893 1.5167177 8.3830289 1.5793872 8.5083284 C 1.6670967 8.6837274 1.8719626 8.9764494 2.0703616 9.0437489 C 2.1773611 9.0799989 2.7890837 9.0654789 2.8977827 9.0437489 C 3.0009822 9.0231094 3.0685599 8.9783999 3.1644594 8.9543399 C 3.2137189 8.9419899 3.357524 8.9854833 3.3877235 8.9098938 C 3.4098235 8.8546543 3.372064 8.7884757 3.3877235 8.7310757 C 3.4175235 8.6217767 3.4857187 8.5264189 3.5215787 8.4189194 C 3.5790182 8.2466199 3.6254338 8.0182349 3.6554338 7.8385359 C 3.6924338 7.6165369 3.6000704 7.3641593 3.6998799 7.1692603 C 3.7111999 7.1471603 3.6811799 7.1111689 3.6998799 7.0948389 C 3.7854694 7.0201489 3.9700244 7.1515434 4.0270239 7.1801134 C 4.1806234 7.2571429 4.3143898 7.3051246 4.4285893 7.4478236 C 4.4620893 7.4897036 4.4761284 7.5481788 4.5179984 7.5816788 C 4.5547279 7.6110583 4.6114835 7.6019249 4.6518535 7.6261249 C 4.7955751 7.7123873 5.0486596 7.9533138 5.2384387 8.140356 C 5.250411 8.3165807 5.1769034 8.4934494 5.1485129 8.6638898 C 5.0756134 9.1012873 5.1040668 9.5563436 5.1040668 10.002441 C 5.1040668 10.167041 5.0723368 10.485451 5.1040668 10.675851 C 5.1314863 10.840351 5.2140219 10.999626 5.2379219 11.166826 C 5.2507219 11.256396 5.1785958 11.345336 5.1934758 11.434536 C 5.2197258 11.592036 5.720652 12.095567 5.8627515 12.237667 C 5.962351 12.337267 6.0642083 12.46174 6.1749078 12.55034 C 6.2167878 12.58384 6.270803 12.601312 6.308763 12.639232 C 6.3466825 12.677152 6.360252 12.735127 6.398172 12.773087 C 6.614171 12.989087 6.9374043 13.057353 7.2013028 13.174653 C 7.2805523 13.209873 7.343967 13.276925 7.424567 13.309025 C 7.549166 13.358525 7.7073506 13.357107 7.8297501 13.397917 C 7.8497096 13.404617 7.8542462 13.43623 7.8741962 13.44288 C 8.2215942 13.55868 7.9742065 13.450606 8.2313155 13.487326 C 8.6195135 13.542776 8.2256738 13.513165 8.5434718 13.576735 C 8.6163918 13.591315 8.6933365 13.564505 8.766736 13.576735 C 8.8131355 13.584435 8.8541616 13.613451 8.9005911 13.621181 C 9.0179906 13.640741 9.1396109 13.606421 9.2577104 13.621181 C 9.3043804 13.626981 9.3449656 13.658977 9.3915656 13.665627 C 9.5240646 13.684557 9.6598315 13.653507 9.793131 13.665627 C 10.270326 13.709007 11.00336 13.777275 11.444355 13.576735 C 11.530515 13.537565 12.115977 13.21206 12.158077 13.08576 C 12.183767 13.008695 12.118703 12.994115 12.202523 12.951905 C 12.215643 12.945305 12.236589 12.962285 12.246969 12.951905 C 12.257359 12.941515 12.236549 12.918326 12.246969 12.907976 C 12.355169 12.800476 12.559881 12.898407 12.692981 12.818567 C 12.882881 12.704567 13.00986 12.466888 13.183955 12.327593 C 13.261675 12.265413 13.627113 11.989127 13.674413 11.926027 C 13.692263 11.902227 13.661113 11.863218 13.674413 11.836618 C 13.707673 11.770098 13.763608 11.717817 13.808268 11.658317 C 13.833508 11.624657 13.878867 11.606538 13.897677 11.568908 C 13.937527 11.489208 13.924923 11.342847 13.942123 11.256752 C 13.948623 11.224142 13.972216 11.197078 13.987086 11.167343 C 14.001956 11.122723 14.023802 11.079917 14.031532 11.033487 C 14.094162 10.657692 14.024706 10.160245 13.987086 9.7843451 C 13.975246 9.6659456 14.015946 9.5432421 13.987086 9.4277426 C 13.981986 9.4073326 13.948773 9.4027297 13.942123 9.3827797 C 13.919993 9.3163802 13.964423 9.2278823 13.942123 9.1615828 C 13.900803 9.0386833 13.790139 8.9349134 13.764339 8.8060139 C 13.755539 8.7622544 13.775159 8.7154788 13.764339 8.6721588 C 13.740649 8.5774093 13.590875 8.4873485 13.541075 8.4044485 C 13.516875 8.364119 13.517659 8.3126934 13.496629 8.2705934 C 13.462459 8.2022539 13.417153 8.2360407 13.362773 8.1817012 C 13.352253 8.1711812 13.373253 8.1472883 13.362773 8.1367383 C 13.308813 8.0824383 13.232706 8.0740995 13.185506 8.0034 C 13.122056 7.9082205 13.075488 7.8273892 13.006688 7.7356897 C 12.963878 7.6786102 12.944476 7.6116048 12.917796 7.5579053 C 12.891696 7.5053753 12.812508 7.4796142 12.786008 7.4281847 C 12.772998 7.4028847 12.806128 7.3630197 12.786008 7.3429102 C 12.776308 7.3331802 12.754579 7.3529497 12.745179 7.3429102 C 12.735479 7.3326002 12.664604 7.1895589 12.656804 7.1661594 C 12.647404 7.1379394 12.664004 7.1061267 12.656804 7.0772672 C 12.646704 7.0368772 12.497486 6.7525474 12.477986 6.7201479 C 12.428946 6.6384179 12.15892 6.360082 12.07642 6.3185825 C 11.997615 6.2789325 11.888212 6.2644759 11.814912 6.1929964 C 11.798172 6.1766664 11.800349 6.1294436 11.782869 6.1139236 C 11.778669 6.1102036 11.71148 6.1172236 11.70483 6.1139236 C 11.62651 6.0750241 11.553232 6.0263821 11.477432 5.9826526 L 11.477432 5.981619 C 11.273432 5.77722 11.068597 5.531438 10.833997 5.355239 C 10.83249 5.3541068 10.830886 5.3532176 10.829345 5.3521381 C 10.968673 5.153735 11.105014 4.9530638 11.247449 4.756767 C 11.253619 4.748257 11.28616 4.8155943 11.28776 4.8172343 C 11.2976 4.8270743 11.330601 4.8033547 11.329622 4.8172343 C 11.328202 4.8372943 11.291676 4.8390331 11.285176 4.8580627 C 11.281866 4.8677827 11.309585 4.8502031 11.316185 4.8580627 C 11.330905 4.8755727 11.316185 4.9039292 11.316185 4.9267992 C 11.316185 4.9394992 11.306025 5.0476825 11.316185 5.0544525 C 11.342975 5.0722925 11.37267 5.0850158 11.40146 5.0994154 C 11.44141 5.1193754 11.492025 5.0885954 11.535315 5.0994154 C 11.767715 5.1575054 11.865402 5.1188319 12.115698 5.1438615 C 12.176698 5.1499615 12.23351 5.178228 12.294 5.1883076 C 12.3372 5.1954976 12.562777 5.153198 12.597887 5.1883076 C 12.645787 5.2361976 12.567892 5.2322369 12.730192 5.2322369 C 12.875532 5.2795354 12.940019 5.1567819 12.940019 5.1567819 C 12.940019 5.0482823 13.244741 4.7690575 13.295587 4.6673579 C 13.302687 4.6530583 13.302687 4.4032177 13.295587 4.3996477 C 13.265847 4.3847677 13.225578 4.4711138 13.206178 4.4440938 C 13.143058 4.3561942 13.165716 4.2257747 13.105916 4.1355551 C 13.079916 4.0963555 13.008191 4.121219 12.972061 4.091109 C 12.863161 4.0003094 12.793081 3.8404893 12.704351 3.7339897 C 12.610051 3.6208901 12.473358 3.5438161 12.391678 3.4213165 C 12.365588 3.3821469 12.368262 3.3295314 12.347232 3.2874614 C 12.340932 3.2749614 11.777248 2.5362835 11.766848 2.5292935 C 11.742458 2.5129035 11.70524 2.5424935 11.67899 2.5292935 C 11.64141 2.5103935 11.625647 2.4615345 11.589581 2.4398845 C 11.439899 2.3502702 10.947455 2.2522864 10.659313 2.2512469 z M 10.109939 7.2069878 C 10.153091 7.2053499 10.195757 7.2085382 10.223638 7.2085382 L 10.709444 7.2085382 C 10.724694 7.3686724 10.692593 7.2873014 10.761643 7.3563474 C 10.802933 7.3976382 10.778827 7.4025648 10.845367 7.4193988 C 10.874177 7.4266888 10.924086 7.3916698 10.934776 7.4193988 C 10.957766 7.4790119 10.922786 7.5711907 10.913586 7.6266417 C 10.894971 7.7383341 10.889723 7.7392029 10.808673 7.8364687 C 10.662475 8.0119045 10.602658 7.9351526 10.410725 7.9625716 C 10.225931 7.9889704 10.298599 7.9946221 10.13888 7.9413821 C 10.107563 7.9309413 10.065784 7.9518581 10.034484 7.9413821 C 10.004814 7.9314543 9.9805926 7.9071101 9.9502428 7.8995201 C 9.9183028 7.8915371 9.9054481 7.9142451 9.8877081 7.8798811 C 9.8746781 7.8546537 9.8810081 7.5644641 9.8877081 7.5444681 C 9.9025381 7.4999524 9.9359196 7.462881 9.9507596 7.4183652 C 9.9640296 7.3785486 9.9425596 7.3339339 9.9507596 7.2927791 C 9.9640858 7.226151 10.038018 7.2097175 10.109939 7.2069878 z M 7.983761 8.7057518 C 8.0888502 8.7016795 8.2084742 8.780879 8.2752448 8.8272034 C 8.3817353 9.0057478 8.3418896 8.9290007 8.3848096 9.0985313 C 8.3893296 9.1163813 8.3757396 9.1620444 8.3848096 9.1801881 C 8.4056423 9.2218558 8.4476487 9.2634883 8.4690504 9.306291 C 8.4789434 9.326076 8.4783421 9.3498587 8.4897231 9.3688257 C 8.4999018 9.3857907 8.5232519 9.3935075 8.5321019 9.4112045 C 8.5465519 9.4401039 8.5408119 9.5938679 8.5321019 9.6199979 C 8.5142011 9.6737006 8.3932501 9.7520706 8.3434644 9.7662566 C 8.3165554 9.7739266 8.2874393 9.7622966 8.2597403 9.7662566 C 8.1419386 9.7830793 8.017464 9.8430567 7.9062387 9.787446 C 7.8705775 9.769616 7.8168128 9.7730917 7.7801358 9.745584 C 7.7185414 9.6993879 7.3886807 9.4251907 7.4028607 9.32593 C 7.4219772 9.1921155 7.539832 9.1713817 7.6126877 9.074241 C 7.6509294 9.0232524 7.654513 8.9063128 7.6964117 8.8644141 C 7.7120527 8.8487681 7.7404962 8.8546056 7.7594632 8.8432246 C 7.817112 8.8086353 7.8615074 8.7440065 7.9274281 8.7176385 C 7.945458 8.7104268 7.9643 8.7065059 7.983761 8.7057518 z M 12.280046 8.9827647 C 12.398931 8.9732594 12.566144 9.1193181 12.631997 9.1755368 C 12.664116 9.202908 12.695154 9.2315664 12.726057 9.2602945 C 12.725463 9.2536248 12.724291 9.2459178 12.722956 9.2380714 L 12.637682 9.1486624 C 12.637682 8.9687578 12.706343 9.1404041 12.722956 9.2380714 L 12.937435 9.4618524 C 12.866354 9.3953685 12.797332 9.3265527 12.726057 9.2602945 C 12.726474 9.2649748 12.726574 9.2692989 12.726574 9.2732149 C 12.726574 9.4285147 12.638332 9.4979502 12.593752 9.6277501 C 12.563392 9.71615 12.593752 9.8896181 12.593752 9.980218 C 12.593752 10.027918 12.596969 10.453818 12.557059 10.467058 C 12.363359 10.531318 11.836903 10.434249 11.667103 10.377649 C 11.647153 10.370999 11.643287 10.337303 11.622657 10.333203 C 11.564257 10.321533 11.501565 10.349543 11.444355 10.333203 C 11.341256 10.303703 11.252485 10.230225 11.176645 10.154385 C 10.795246 9.7729852 11.728713 9.3057487 11.934813 9.2173988 C 11.991213 9.1932389 12.062601 9.2069727 12.113631 9.1729527 C 12.172461 9.1337528 12.171309 9.0326355 12.232499 8.9972356 C 12.247074 8.9888106 12.263062 8.9841226 12.280046 8.9827647 z " />
  <path
     id="path1908"
     style="fill:#000000;stroke:none;stroke-width:0.7938;stroke-linecap:round"
     d="M 22.994141 3.6275258 C 22.552765 3.6275258 22.029666 3.6950669 21.630266 4.0947267 C 21.166514 5.3308972 21.262765 5.5576315 21.456099 6.8415994 L 24.588516 12.336895 C 25.96967 11.409071 28.033569 9.3067788 28.996433 7.6064859 C 29.030663 7.486686 29.022493 6.6921447 28.996433 6.5356448 C 28.958183 6.3061451 28.875877 6.0966566 28.804178 5.8813568 C 28.470448 5.4242121 28.128148 4.9169439 27.728685 4.8777017 C 27.626385 4.8572417 26.809195 5.1618911 26.717795 5.2844353 C 26.337714 5.5707783 25.906629 6.3527904 25.78546 6.4855138 C 25.637734 5.9259396 25.990736 5.7608798 25.475888 4.9686612 C 24.70694 4.1791651 24.1586 3.8594132 22.994141 3.6275258 z M 23.725435 5.3190619 C 23.803018 5.3179281 23.86179 5.3497491 23.87066 5.3542053 C 23.917125 5.3775367 23.997528 5.4701999 24.015368 5.5237207 C 24.136602 5.7687831 24.31028 6.6053151 24.3575 7.2767578 C 24.373976 7.4584515 24.276723 7.6104769 24.207623 7.6824577 C 24.192683 7.6920417 24.174018 7.6913822 24.154908 7.7036472 C 24.116782 7.728113 24.023888 7.6926022 23.979708 7.7036472 C 23.87956 7.6345502 23.788536 7.6573742 23.775566 7.3940749 C 23.731876 6.6939522 23.28019 6.1105324 23.516641 5.464287 C 23.531546 5.467979 23.613537 5.3450177 23.627757 5.3392177 C 23.662156 5.3251808 23.695076 5.3195055 23.725435 5.3190619 z M 27.344691 6.915504 C 27.346328 6.9153847 27.347753 6.915504 27.349343 6.915504 C 27.383689 6.915504 27.495408 6.9167005 27.530228 6.9341093 C 27.674294 7.0061442 27.635142 7.1727774 27.635142 7.3103508 C 27.450855 7.7797576 27.214294 8.0082339 26.732782 8.3801582 C 26.60247 8.4663071 26.497983 8.5534568 26.34052 8.5770648 L 26.214933 8.5527745 C 26.110897 8.4498676 26.118887 8.3760653 26.100717 8.2085756 C 26.115627 8.1672336 26.147375 8.0890459 26.174105 8.0623169 C 26.542652 7.7511094 26.856493 7.4264697 27.177243 7.004913 C 27.221177 6.9788596 27.293946 6.919201 27.344691 6.915504 z M 23.818461 8.7848245 C 24.010133 8.7808552 24.074165 8.9305804 24.152324 9.3021565 C 24.411561 9.72999 24.410597 9.7798462 24.762683 9.944041 C 24.910937 9.9919958 25.037951 10.000958 25.216447 9.9843526 C 25.508011 9.9499469 25.6772 9.9629874 25.899159 9.6680617 C 25.95381 9.6095847 25.980896 9.5772934 26.071776 9.5962244 C 26.161025 9.6087884 26.179008 9.6716107 26.183408 9.6763307 C 26.238498 9.7351531 26.164244 10.012685 26.064023 10.107355 C 25.770152 10.411507 25.359473 10.470758 24.801961 10.470159 C 24.433118 10.428971 24.164541 10.332553 23.922341 10.030349 C 23.72497 9.6945065 23.532622 8.8469514 23.778667 8.7879254 C 23.792625 8.7863136 23.805683 8.7850891 23.818461 8.7848245 z " />
  <path
     id="path808"
     style="fill:#000000;stroke:none;stroke-width:0.594059;stroke-linecap:round"
     d="M 11.186982 20.806463 C 11.039585 20.808005 10.888813 20.8199 10.748205 20.8199 C 10.417105 20.8199 10.075475 20.79826 9.745584 20.8199 C 9.5682162 20.83154 9.3960005 20.907318 9.2163652 20.919128 C 8.9057467 20.939548 8.5887787 20.891048 8.2788625 20.919128 C 8.1776283 20.928328 8.0819917 20.972291 7.9811769 20.985281 C 7.3622116 21.065051 7.9059565 20.982077 7.2746906 21.018357 C 7.153363 21.025357 7.0335248 21.050289 6.9124031 21.060219 C 6.6999499 21.077639 6.4330862 21.043297 6.2395097 21.159447 C 6.1328605 21.223437 6.0844547 21.365359 6.0079765 21.457133 C 5.9181398 21.564937 5.8046872 21.650985 5.710291 21.754818 C 5.5854716 21.89212 5.4660979 22.044624 5.3454195 22.185325 C 5.3194875 22.215565 5.3092381 22.258314 5.2792671 22.284554 C 5.0242613 22.507775 5.1528745 22.347461 4.8782185 22.485078 C 4.8285158 22.509978 4.7970482 22.564777 4.745397 22.58534 C 4.6800543 22.61135 4.5971445 22.583854 4.5371205 22.620484 C 4.4950388 22.646184 4.4996269 22.712664 4.4709682 22.752789 C 4.3980272 22.854903 4.2874912 22.953115 4.2063588 23.050474 C 4.1198451 23.154292 4.0034844 23.191616 3.9417494 23.315083 C 3.8199312 23.55872 3.8988101 23.854629 3.8755971 24.112529 C 3.8480971 24.418059 3.8118599 24.735936 3.8425209 25.045381 C 3.8480609 25.101321 3.8755971 25.154543 3.8755971 25.210762 C 3.8755971 25.266982 3.8481149 25.320202 3.8425209 25.376142 C 3.8098273 25.703079 3.8345571 26.044539 3.8409705 26.376697 C 3.8002385 26.392703 3.7591828 26.407674 3.716418 26.416491 C 3.5869456 26.443181 3.4521226 26.433439 3.3215712 26.454219 C 3.0391187 26.499179 2.782006 26.594096 2.5385962 26.741568 C 2.15046 26.976721 2.3049918 27.096662 2.2708859 27.471828 C 2.2264651 27.960461 2.2143918 28.220871 2.7008762 28.464113 C 2.8397068 28.533523 2.9455664 28.516426 3.0977902 28.530266 C 3.3777426 28.555724 3.7434495 28.610082 4.023923 28.563342 C 4.1346022 28.544902 4.2418585 28.513299 4.3546848 28.497189 C 4.5061709 28.475549 4.8616172 28.545799 4.983132 28.497189 C 5.1750711 28.420416 5.165631 28.33381 5.268414 28.184516 C 5.4638909 28.281058 5.6723705 28.440621 5.8606842 28.503391 C 6.127531 28.592341 6.4251038 28.521623 6.691723 28.603653 C 6.7817577 28.631353 6.8652988 28.678662 6.9563324 28.702882 C 7.1186665 28.746072 7.2964926 28.747125 7.460744 28.770585 C 7.6153934 28.792685 7.7671551 28.857123 7.9238104 28.869813 C 8.3757777 28.906423 8.8416298 28.869813 9.2954379 28.869813 C 9.4167171 28.869813 9.5389334 28.854783 9.6592758 28.869813 C 9.7043838 28.875413 9.7461221 28.902889 9.7915805 28.902889 C 9.8477992 28.902889 9.9011769 28.876773 9.9569614 28.869813 C 10.043808 28.858963 10.134725 28.880663 10.221571 28.869813 C 10.430495 28.843693 10.698011 28.777123 10.883094 28.671356 C 10.98366 28.613886 10.998217 28.476191 11.081551 28.406747 C 11.119431 28.375177 11.169751 28.362644 11.213856 28.340594 C 11.257956 28.307514 11.304306 28.277246 11.346161 28.241366 C 11.437878 28.162746 11.540956 28.038489 11.643846 27.976756 C 11.662756 27.965406 11.690278 27.986656 11.709998 27.976756 C 11.852545 27.905479 11.96844 27.685117 12.073836 27.579842 C 12.316284 27.337678 12.094447 27.586832 12.339996 27.446504 C 12.466657 27.374124 12.487652 27.249468 12.571529 27.148819 C 12.596979 27.118279 12.642648 27.110776 12.670758 27.082666 C 12.698868 27.054556 12.7088 27.011548 12.73691 26.983438 C 12.81978 26.900558 12.949106 26.856731 13.00152 26.751904 C 13.02553 26.703884 13.053752 26.492495 13.067672 26.454219 C 13.120562 26.308764 13.18491 26.201734 13.233053 26.057305 C 13.274873 25.93184 13.335351 25.776043 13.398434 25.660391 C 13.53224 25.415081 13.538204 25.527564 13.596891 25.263477 C 13.633741 25.097651 13.578121 24.903205 13.596891 24.734258 C 13.601891 24.689078 13.626187 24.647258 13.629967 24.601953 C 13.654707 24.305141 13.623571 24.002836 13.596891 23.708897 C 13.587996 23.611033 13.601518 23.51035 13.602059 23.411211 L 13.602059 23.410694 C 13.628204 23.391071 13.660126 23.378503 13.685783 23.357979 C 13.778608 23.283719 13.846326 23.154951 13.917316 23.060294 C 13.96855 22.991983 14.061263 22.88327 14.115773 22.82876 C 14.133203 22.81132 14.164496 22.813114 14.181926 22.795684 C 14.238563 22.739049 14.242674 22.628281 14.281154 22.564151 C 14.342969 22.461126 14.462109 22.379759 14.413459 22.234423 C 14.405629 22.211043 14.385183 22.192441 14.380383 22.168271 C 14.373883 22.135831 14.390843 22.100422 14.380383 22.069042 C 14.312748 21.866139 14.06895 21.764822 13.948842 21.604942 C 13.796347 21.40195 13.686166 20.956835 13.320911 21.175985 C 13.267426 21.208074 13.238507 21.27087 13.188607 21.30829 C 13.101543 21.373588 13.021787 21.427191 12.923997 21.473671 C 12.893736 21.488055 12.864702 21.504018 12.835622 21.520701 C 12.830893 21.497074 12.829265 21.47209 12.813916 21.454549 C 12.744546 21.375269 12.556051 21.238461 12.450078 21.189939 C 12.215797 21.082671 12.046063 21.052328 11.801475 20.962024 C 11.681749 20.917824 11.572259 20.837878 11.445906 20.8199 C 11.362657 20.808057 11.275417 20.805537 11.186982 20.806463 z M 13.364324 22.232356 C 13.415688 22.229971 13.507027 22.239591 13.528154 22.239591 L 13.73333 22.239591 L 13.809819 22.239591 C 13.739499 22.239591 13.798882 22.286797 13.776742 22.331067 C 13.745674 22.393207 13.655361 22.386296 13.611362 22.430296 C 13.527341 22.51432 13.511521 22.695834 13.445981 22.794134 C 13.427606 22.821698 13.31123 22.922765 13.2806 22.959515 C 13.232321 23.01745 13.182423 23.072166 13.131757 23.125929 C 13.130232 23.235694 13.096707 23.35319 13.122454 23.456174 C 13.174414 23.664025 13.155531 23.888974 13.155531 24.108912 C 13.155531 24.228936 13.158626 24.536599 13.023743 24.604021 C 12.984293 24.623741 12.935203 24.598521 12.891438 24.604021 C 12.768482 24.619391 12.71897 24.672539 12.626829 24.703249 C 12.474935 24.753879 12.228506 24.787762 12.071769 24.735292 C 12.025999 24.719972 11.882562 24.724151 11.853673 24.767851 C 11.841513 24.786241 11.860673 24.813083 11.853673 24.834003 C 11.838423 24.879753 11.800528 24.904459 11.789588 24.962173 C 11.783388 24.994673 11.796088 25.028962 11.789588 25.061402 C 11.758198 25.218349 11.683959 25.408165 11.624207 25.557545 C 11.594927 25.630744 11.49698 25.635789 11.46141 25.688299 C 11.42811 25.737459 11.433268 25.808068 11.395258 25.85368 C 11.359968 25.89603 11.299258 25.911418 11.262953 25.952908 C 11.199493 26.025438 11.105353 26.201439 11.064496 26.283153 C 11.017326 26.377493 10.868952 26.364742 10.794719 26.314162 C 10.768949 26.296602 10.756426 26.26202 10.728566 26.24801 C 10.701356 26.23432 10.437481 26.271176 10.407624 26.281086 C 10.348524 26.300706 10.327134 26.37885 10.27532 26.413391 C 10.24631 26.43273 10.205991 26.428527 10.176091 26.446467 C 10.051251 26.521367 9.9734788 26.830481 9.8463629 26.957597 C 9.6698049 27.134155 9.9316236 26.705242 9.6809821 27.122978 C 9.6753121 27.132378 9.6809821 27.145014 9.6809821 27.156054 C 9.6589321 27.178094 9.6321777 27.196296 9.6148297 27.222206 C 9.6040577 27.238296 9.6297907 27.2678 9.6148297 27.28009 C 9.5740698 27.31359 9.5086611 27.27479 9.4561674 27.28009 C 9.4269115 27.28299 9.0146791 27.31653 8.9600249 27.28009 C 8.9395119 27.26641 8.9406237 27.234447 8.9269487 27.213937 C 8.9302487 27.148407 8.8782283 27.198301 8.8607964 27.180861 C 8.8433644 27.163421 8.8450972 27.132199 8.8277202 27.114709 C 8.8200502 27.107009 8.8042568 27.120709 8.7951608 27.114709 C 8.7444919 27.081439 8.7098536 27.028882 8.6669907 26.986022 C 8.6449407 26.963982 8.6320063 26.920879 8.6008383 26.919869 C 8.5716373 26.918769 8.5649525 26.968817 8.5388205 26.981887 C 8.4469106 27.027837 8.3339535 27.00424 8.2457863 27.04804 C 8.1936173 27.07397 8.1646853 27.151366 8.1139984 27.179311 C 7.8243517 27.339005 7.9237434 27.224306 7.6137213 27.379318 C 7.5644144 27.403978 7.5286563 27.450127 7.4814166 27.478547 C 7.4720866 27.484147 7.4570063 27.471347 7.4488573 27.478547 C 7.3865083 27.533797 7.3395741 27.670981 7.2524675 27.70026 C 7.1718066 27.72737 7.0683176 27.707157 6.9894086 27.733336 C 6.7558087 27.810876 7.0403475 27.724432 6.8912137 27.798972 C 6.8877437 27.800872 6.5483839 27.71811 6.5309935 27.70026 C 6.5233935 27.69246 6.5386935 27.675411 6.5309935 27.667701 C 6.5228835 27.659601 6.3902191 27.586482 6.3661295 27.568472 C 6.3291315 27.540812 6.3113905 27.485948 6.2679346 27.470278 C 6.2418946 27.460878 6.2123813 27.468978 6.1847273 27.470278 C 6.071855 27.475378 5.9197724 27.475777 5.8255408 27.538497 C 5.7996598 27.555727 5.7882754 27.592653 5.7593884 27.604133 C 5.6431456 27.650333 5.4675931 27.573723 5.3459363 27.604133 C 5.3220183 27.610133 5.3040989 27.633139 5.2797839 27.637209 C 5.189586 27.652289 4.5933519 27.663619 4.4900903 27.637209 C 4.4178674 27.618739 4.3144733 27.543139 4.2585571 27.504904 C 4.2321602 27.486854 4.1384982 27.513704 4.1122984 27.504904 C 4.0975204 27.499904 4.0948152 27.471828 4.0792223 27.471828 C 3.9982373 27.471828 3.8169083 27.584576 3.7484605 27.604133 C 3.5805055 27.652123 3.3582679 27.598624 3.1778966 27.516274 L 3.1778966 27.515757 C 3.3285761 27.475507 3.46633 27.422705 3.6047859 27.353477 C 3.6628949 27.324417 3.7148045 27.248853 3.7701668 27.221173 C 3.8108267 27.200853 3.8634908 27.211476 3.9024715 27.188096 C 3.9236114 27.175416 3.9181707 27.139424 3.9355476 27.121944 C 4.0399589 27.016876 4.8990009 27.013133 5.0513516 27.024783 C 5.1971637 27.035953 5.7335338 27.107299 5.8818736 27.057859 C 5.8923336 27.054359 5.8740736 27.032593 5.8818736 27.024783 C 5.9099826 26.996673 5.9441922 26.973391 5.9811021 26.958631 C 6.0813016 26.918551 6.2377146 26.976491 6.34494 26.958631 C 6.6874004 26.901551 7.0451368 26.898002 7.3925244 26.859402 C 7.4808703 26.849602 7.5716646 26.850706 7.6571338 26.826326 C 7.7142227 26.810026 7.7640987 26.770793 7.8225146 26.760173 C 7.8875996 26.748344 7.9555886 26.770223 8.0209717 26.760173 C 8.1161806 26.745514 8.4444693 26.647654 8.5501904 26.594793 C 8.5780824 26.580853 8.5896028 26.54468 8.6163428 26.52864 C 8.7245402 26.46372 9.0364211 26.315297 9.1455615 26.297107 C 9.1781875 26.291707 9.2125011 26.304307 9.24479 26.297107 C 9.3468953 26.274417 9.4385845 26.185758 9.5424756 26.197879 C 9.6133215 26.206179 9.6754877 26.250418 9.7450671 26.266098 C 9.7678901 26.271198 10.117285 26.186286 10.173507 26.167386 C 10.231757 26.183476 10.235419 26.115954 10.272219 26.101234 C 10.350949 26.069744 10.557108 25.995245 10.636057 25.968929 C 10.656976 25.961929 10.684989 25.982709 10.702209 25.968929 C 10.745259 25.934489 10.762457 25.875609 10.801437 25.836625 C 11.02044 25.617622 10.852948 25.854195 11.032971 25.638168 C 11.058421 25.607628 11.071013 25.567049 11.099123 25.538939 C 11.127233 25.510829 11.170241 25.500897 11.198351 25.472787 C 11.303397 25.36774 11.381125 25.107583 11.462961 24.976644 C 11.529071 24.870866 11.660601 24.817271 11.72757 24.712035 C 11.76501 24.653205 11.762543 24.575947 11.793723 24.513578 C 11.873472 24.354085 11.929098 24.378202 12.058332 24.248969 C 12.086442 24.220859 12.099654 24.18078 12.124484 24.14974 C 12.200864 24.05426 12.28875 23.986034 12.356017 23.885131 C 12.437737 23.762549 12.615382 23.724442 12.718305 23.621038 C 12.774395 23.564688 12.797425 23.481676 12.85061 23.422581 C 12.943379 23.319503 13.038856 23.224509 13.131757 23.125929 C 13.132207 23.093521 13.129954 23.061787 13.122454 23.031352 C 13.093624 22.914378 13.031022 22.810657 13.067672 22.667514 C 13.073792 22.643634 13.096648 22.625682 13.100748 22.601362 C 13.107948 22.557857 13.083378 22.509597 13.100748 22.469057 C 13.141388 22.374236 13.234735 22.368146 13.299205 22.303676 C 13.315965 22.286926 13.313454 22.256351 13.330214 22.239591 C 13.334453 22.235351 13.347203 22.233151 13.364324 22.232356 z " />
</svg>
